<svg width="32.000000" height="32.000000" viewBox="0 0 32 32" fill="none" xmlns="http://www.w3.org/2000/svg" xmlns:xlink="http://www.w3.org/1999/xlink">
	<desc>
			Created with Pixso.
	</desc>
	<defs>
		<clipPath id="clip19968_249">
			<rect id="Telegram" width="32.000000" height="32.000000" fill="white" fill-opacity="0"/>
		</clipPath>
	</defs>
	<g clip-path="url(#clip19968_249)">
		<rect id="Frame" rx="4.000000" width="32.000000" height="32.000000" fill="#FFFFFF" fill-opacity="1.000000"/>
		<path id="Vector" d="M9.88 17.12L4.47 15.42C4.47 15.42 3.83 15.16 4.04 14.58C4.07 14.46 4.17 14.37 4.43 14.19C5.63 13.39 26.64 6.11 26.64 6.11C26.64 6.11 27.24 5.91 27.58 6.04C27.75 6.09 27.84 6.16 27.94 6.4C27.98 6.49 28 6.67 28 6.85C28 6.98 27.98 7.11 27.96 7.3C27.83 9.3 24.01 24.13 24.01 24.13C24.01 24.13 23.78 25 22.96 25.03C22.65 25.05 22.3 24.98 21.86 24.62C20.25 23.28 14.68 19.67 13.46 18.89C13.38 18.86 13.36 18.79 13.36 18.73C13.35 18.64 13.44 18.55 13.44 18.55C13.44 18.55 23.02 10.78 23.26 9.91C23.28 9.83 23.21 9.8 23.11 9.83C22.47 10.07 11.43 16.32 10.2 17.08C10.09 17.16 9.88 17.12 9.88 17.12Z" fill="#163152" fill-opacity="1.000000" fill-rule="nonzero"/>
	</g>
</svg>
