<svg width="32.000000" height="32.000000" viewBox="0 0 32 32" fill="none" xmlns="http://www.w3.org/2000/svg" xmlns:xlink="http://www.w3.org/1999/xlink">
	<defs>
		<clipPath id="clip19972_69">
			<rect id="VK" width="32.000000" height="32.000000" fill="white" fill-opacity="0"/>
		</clipPath>
	</defs>
	<g clip-path="url(#clip19972_69)">
		<rect id="Rectangle" rx="4.000000" width="32.000000" height="32.000000" fill="#FFFFFF" fill-opacity="1.000000"/>
		<path id="↳ Foreground" d="M17.02 23.05C9.73 23.05 5.57 18.05 5.4 9.73L9.05 9.73C9.17 15.84 11.86 18.42 14 18.96L14 9.73L17.44 9.73L17.44 15C19.54 14.77 21.75 12.37 22.5 9.73L25.94 9.73C25.37 12.98 22.97 15.38 21.26 16.37C22.97 17.17 25.7 19.26 26.74 23.05L22.96 23.05C22.14 20.52 20.12 18.56 17.44 18.29L17.44 23.05L17.02 23.05Z" fill="#163152" fill-opacity="1.000000" fill-rule="nonzero"/>
	</g>
</svg>
