<svg width="32.000000" height="32.000000" viewBox="0 0 32 32" fill="none" xmlns="http://www.w3.org/2000/svg" xmlns:xlink="http://www.w3.org/1999/xlink">
	<desc>
			Created with Pixso.
	</desc>
	<defs>
		<clipPath id="clip19968_250">
			<rect id="Whatsapp" width="32.000000" height="32.000000" fill="white" fill-opacity="0"/>
		</clipPath>
	</defs>
	<g clip-path="url(#clip19968_250)">
		<rect id="Frame" rx="4.000000" width="32.000000" height="32.000000" fill="#FFFFFF" fill-opacity="1.000000"/>
		<path id="Vector" d="M4.48 27.51L6.16 21.36C5.26 19.68 4.7 17.78 4.7 15.88C4.7 9.62 9.85 4.48 16.11 4.48C22.37 4.48 27.51 9.62 27.51 15.88C27.51 22.14 22.37 27.29 16.11 27.29C14.21 27.29 12.42 26.84 10.74 25.95L4.48 27.51ZM10.96 23.6L11.3 23.82C12.75 24.72 14.32 25.16 16 25.16C21.03 25.16 25.16 21.03 25.16 16C25.16 10.96 21.03 6.83 16 6.83C10.96 6.83 6.83 10.96 6.83 16C6.83 17.67 7.27 19.35 8.17 20.8L8.39 21.25L7.5 24.72L10.96 23.6Z" fill="#163152" fill-opacity="1.000000" fill-rule="nonzero"/>
		<path id="Vector" d="M20.24 17.45C19.8 17.11 19.13 16.89 18.57 17.11C18.12 17.34 17.9 17.9 17.56 18.23C17.45 18.46 17.22 18.46 17 18.34C15.44 17.67 14.21 16.67 13.31 15.21C13.2 14.99 13.2 14.77 13.42 14.54C13.65 14.21 13.98 13.87 14.09 13.43C14.21 12.98 13.98 12.53 13.76 12.2C13.53 11.75 13.31 11.08 12.86 10.74C12.42 10.52 11.86 10.63 11.41 10.97C10.74 11.52 10.4 12.42 10.4 13.2C10.4 13.43 10.4 13.65 10.52 13.87C10.63 14.43 10.96 14.99 11.19 15.44C11.41 15.77 11.63 16.22 11.86 16.56C12.75 17.67 13.76 18.68 14.99 19.46C15.55 19.8 16.22 20.13 16.89 20.36C17.67 20.58 18.34 20.92 19.13 20.69C20.02 20.58 20.8 20.02 21.14 19.13C21.25 18.9 21.25 18.57 21.25 18.34C21.36 18.01 20.69 17.79 20.24 17.45Z" fill="#163152" fill-opacity="1.000000" fill-rule="evenodd"/>
	</g>
</svg>
